<mxfile host="app.diagrams.net" modified="2021-06-03T18:20:24.619Z" agent="5.0 (Macintosh; Intel Mac OS X 10_15_7) AppleWebKit/537.36 (KHTML, like Gecko) Chrome/91.0.4472.77 Safari/537.36" etag="-N16Rc8H_epoTZuA9jk7" version="14.7.4" type="github">
  <diagram id="C5RBs43oDa-KdzZeNtuy" name="Page-1">
    <mxGraphModel dx="1186" dy="429" grid="1" gridSize="10" guides="1" tooltips="1" connect="1" arrows="1" fold="1" page="1" pageScale="1" pageWidth="827" pageHeight="1169" math="0" shadow="0">
      <root>
        <mxCell id="WIyWlLk6GJQsqaUBKTNV-0" />
        <mxCell id="WIyWlLk6GJQsqaUBKTNV-1" parent="WIyWlLk6GJQsqaUBKTNV-0" />
        <mxCell id="mCo6vJ3O1-zAY22SgFGW-10" value="" style="edgeStyle=orthogonalEdgeStyle;rounded=0;orthogonalLoop=1;jettySize=auto;html=1;" edge="1" parent="WIyWlLk6GJQsqaUBKTNV-1" source="mCo6vJ3O1-zAY22SgFGW-0" target="mCo6vJ3O1-zAY22SgFGW-1">
          <mxGeometry relative="1" as="geometry" />
        </mxCell>
        <mxCell id="mCo6vJ3O1-zAY22SgFGW-0" value="Input Image" style="rounded=0;whiteSpace=wrap;html=1;fillColor=#f5f5f5;strokeColor=#666666;fontColor=#333333;" vertex="1" parent="WIyWlLk6GJQsqaUBKTNV-1">
          <mxGeometry x="40" y="330" width="60" height="150" as="geometry" />
        </mxCell>
        <mxCell id="mCo6vJ3O1-zAY22SgFGW-11" value="" style="edgeStyle=orthogonalEdgeStyle;rounded=0;orthogonalLoop=1;jettySize=auto;html=1;" edge="1" parent="WIyWlLk6GJQsqaUBKTNV-1" source="mCo6vJ3O1-zAY22SgFGW-1" target="mCo6vJ3O1-zAY22SgFGW-3">
          <mxGeometry relative="1" as="geometry" />
        </mxCell>
        <mxCell id="mCo6vJ3O1-zAY22SgFGW-17" value="" style="edgeStyle=orthogonalEdgeStyle;rounded=0;orthogonalLoop=1;jettySize=auto;html=1;" edge="1" parent="WIyWlLk6GJQsqaUBKTNV-1" source="mCo6vJ3O1-zAY22SgFGW-1" target="mCo6vJ3O1-zAY22SgFGW-3">
          <mxGeometry relative="1" as="geometry" />
        </mxCell>
        <mxCell id="mCo6vJ3O1-zAY22SgFGW-1" value="ResNet&lt;br&gt;-18" style="rounded=0;whiteSpace=wrap;html=1;fillColor=#d5e8d4;strokeColor=#82b366;" vertex="1" parent="WIyWlLk6GJQsqaUBKTNV-1">
          <mxGeometry x="120" y="330" width="61" height="150" as="geometry" />
        </mxCell>
        <mxCell id="mCo6vJ3O1-zAY22SgFGW-3" value="Features&lt;br&gt;(Avg Pool Layer)" style="whiteSpace=wrap;html=1;rounded=0;fillColor=#f8cecc;strokeColor=#b85450;" vertex="1" parent="WIyWlLk6GJQsqaUBKTNV-1">
          <mxGeometry x="200" y="330" width="60" height="150" as="geometry" />
        </mxCell>
        <mxCell id="mCo6vJ3O1-zAY22SgFGW-16" style="edgeStyle=orthogonalEdgeStyle;rounded=0;orthogonalLoop=1;jettySize=auto;html=1;entryX=0;entryY=0.5;entryDx=0;entryDy=0;" edge="1" parent="WIyWlLk6GJQsqaUBKTNV-1" source="mCo6vJ3O1-zAY22SgFGW-8" target="mCo6vJ3O1-zAY22SgFGW-14">
          <mxGeometry relative="1" as="geometry" />
        </mxCell>
        <mxCell id="mCo6vJ3O1-zAY22SgFGW-8" value="Linear Layer" style="rounded=0;whiteSpace=wrap;html=1;fillColor=#fff2cc;strokeColor=#d6b656;" vertex="1" parent="WIyWlLk6GJQsqaUBKTNV-1">
          <mxGeometry x="290" y="330" width="90" height="70" as="geometry" />
        </mxCell>
        <mxCell id="mCo6vJ3O1-zAY22SgFGW-14" value="Facial Landmark Location Predictions" style="rounded=0;whiteSpace=wrap;html=1;fillColor=#dae8fc;strokeColor=#6c8ebf;" vertex="1" parent="WIyWlLk6GJQsqaUBKTNV-1">
          <mxGeometry x="400" y="330" width="200" height="70" as="geometry" />
        </mxCell>
        <mxCell id="mCo6vJ3O1-zAY22SgFGW-21" value="" style="endArrow=classic;html=1;entryX=0;entryY=0.5;entryDx=0;entryDy=0;exitX=1;exitY=0.5;exitDx=0;exitDy=0;" edge="1" parent="WIyWlLk6GJQsqaUBKTNV-1" source="mCo6vJ3O1-zAY22SgFGW-3" target="mCo6vJ3O1-zAY22SgFGW-8">
          <mxGeometry width="50" height="50" relative="1" as="geometry">
            <mxPoint x="241" y="400" as="sourcePoint" />
            <mxPoint x="280" y="330" as="targetPoint" />
          </mxGeometry>
        </mxCell>
        <mxCell id="mCo6vJ3O1-zAY22SgFGW-24" value="" style="endArrow=classic;html=1;exitX=1;exitY=0.5;exitDx=0;exitDy=0;entryX=0;entryY=0.5;entryDx=0;entryDy=0;" edge="1" parent="WIyWlLk6GJQsqaUBKTNV-1" source="mCo6vJ3O1-zAY22SgFGW-3" target="mCo6vJ3O1-zAY22SgFGW-25">
          <mxGeometry width="50" height="50" relative="1" as="geometry">
            <mxPoint x="240" y="384.5" as="sourcePoint" />
            <mxPoint x="300" y="384.5" as="targetPoint" />
          </mxGeometry>
        </mxCell>
        <mxCell id="mCo6vJ3O1-zAY22SgFGW-29" style="edgeStyle=orthogonalEdgeStyle;rounded=0;orthogonalLoop=1;jettySize=auto;html=1;entryX=0;entryY=0.5;entryDx=0;entryDy=0;" edge="1" parent="WIyWlLk6GJQsqaUBKTNV-1" source="mCo6vJ3O1-zAY22SgFGW-25" target="mCo6vJ3O1-zAY22SgFGW-27">
          <mxGeometry relative="1" as="geometry" />
        </mxCell>
        <mxCell id="mCo6vJ3O1-zAY22SgFGW-25" value="Linear Layer" style="rounded=0;whiteSpace=wrap;html=1;fillColor=#fff2cc;strokeColor=#d6b656;" vertex="1" parent="WIyWlLk6GJQsqaUBKTNV-1">
          <mxGeometry x="290" y="420" width="90" height="60" as="geometry" />
        </mxCell>
        <mxCell id="mCo6vJ3O1-zAY22SgFGW-32" style="edgeStyle=orthogonalEdgeStyle;rounded=0;orthogonalLoop=1;jettySize=auto;html=1;exitX=1;exitY=0.5;exitDx=0;exitDy=0;entryX=0;entryY=0.5;entryDx=0;entryDy=0;" edge="1" parent="WIyWlLk6GJQsqaUBKTNV-1" source="mCo6vJ3O1-zAY22SgFGW-27" target="mCo6vJ3O1-zAY22SgFGW-30">
          <mxGeometry relative="1" as="geometry" />
        </mxCell>
        <mxCell id="mCo6vJ3O1-zAY22SgFGW-27" value="Leaky-ReLu" style="rounded=0;whiteSpace=wrap;html=1;fillColor=#e1d5e7;strokeColor=#9673a6;" vertex="1" parent="WIyWlLk6GJQsqaUBKTNV-1">
          <mxGeometry x="400" y="420" width="90" height="60" as="geometry" />
        </mxCell>
        <mxCell id="mCo6vJ3O1-zAY22SgFGW-35" style="edgeStyle=orthogonalEdgeStyle;rounded=0;orthogonalLoop=1;jettySize=auto;html=1;exitX=1;exitY=0.5;exitDx=0;exitDy=0;entryX=0;entryY=0.5;entryDx=0;entryDy=0;" edge="1" parent="WIyWlLk6GJQsqaUBKTNV-1" source="mCo6vJ3O1-zAY22SgFGW-30" target="mCo6vJ3O1-zAY22SgFGW-33">
          <mxGeometry relative="1" as="geometry" />
        </mxCell>
        <mxCell id="mCo6vJ3O1-zAY22SgFGW-30" value="Linear Layer" style="rounded=0;whiteSpace=wrap;html=1;fillColor=#fff2cc;strokeColor=#d6b656;" vertex="1" parent="WIyWlLk6GJQsqaUBKTNV-1">
          <mxGeometry x="510" y="420" width="90" height="60" as="geometry" />
        </mxCell>
        <mxCell id="mCo6vJ3O1-zAY22SgFGW-36" style="edgeStyle=orthogonalEdgeStyle;rounded=0;orthogonalLoop=1;jettySize=auto;html=1;exitX=1;exitY=0.5;exitDx=0;exitDy=0;entryX=0;entryY=0.5;entryDx=0;entryDy=0;" edge="1" parent="WIyWlLk6GJQsqaUBKTNV-1" source="mCo6vJ3O1-zAY22SgFGW-33" target="mCo6vJ3O1-zAY22SgFGW-34">
          <mxGeometry relative="1" as="geometry" />
        </mxCell>
        <mxCell id="mCo6vJ3O1-zAY22SgFGW-33" value="Leaky-ReLu" style="rounded=0;whiteSpace=wrap;html=1;fillColor=#e1d5e7;strokeColor=#9673a6;" vertex="1" parent="WIyWlLk6GJQsqaUBKTNV-1">
          <mxGeometry x="620" y="420" width="90" height="60" as="geometry" />
        </mxCell>
        <mxCell id="mCo6vJ3O1-zAY22SgFGW-39" style="edgeStyle=orthogonalEdgeStyle;rounded=0;orthogonalLoop=1;jettySize=auto;html=1;exitX=1;exitY=0.5;exitDx=0;exitDy=0;" edge="1" parent="WIyWlLk6GJQsqaUBKTNV-1" source="mCo6vJ3O1-zAY22SgFGW-34" target="mCo6vJ3O1-zAY22SgFGW-40">
          <mxGeometry relative="1" as="geometry">
            <mxPoint x="880" y="450" as="targetPoint" />
          </mxGeometry>
        </mxCell>
        <mxCell id="mCo6vJ3O1-zAY22SgFGW-34" value="Linear Layer" style="rounded=0;whiteSpace=wrap;html=1;fillColor=#fff2cc;strokeColor=#d6b656;" vertex="1" parent="WIyWlLk6GJQsqaUBKTNV-1">
          <mxGeometry x="730" y="420" width="90" height="60" as="geometry" />
        </mxCell>
        <mxCell id="mCo6vJ3O1-zAY22SgFGW-40" value="Sensitive Attribute Predictions" style="rounded=0;whiteSpace=wrap;html=1;fillColor=#fad7ac;strokeColor=#b46504;" vertex="1" parent="WIyWlLk6GJQsqaUBKTNV-1">
          <mxGeometry x="840" y="420" width="120" height="60" as="geometry" />
        </mxCell>
      </root>
    </mxGraphModel>
  </diagram>
</mxfile>
